<svg width="20" height="20" viewBox="0 0 20 20" fill="none" xmlns="http://www.w3.org/2000/svg">
<path fill-rule="evenodd" clip-rule="evenodd" d="M14.35 3.61801C11.3864 0.654462 6.58156 0.654462 3.61801 3.61801C0.654462 6.58156 0.654462 11.3864 3.61801 14.35C6.58156 17.3135 11.3864 17.3135 14.35 14.35C17.3135 11.3864 17.3135 6.58156 14.35 3.61801ZM2.63135 2.63135C6.13982 -0.877117 11.8282 -0.877117 15.3366 2.63135C18.6791 5.97381 18.8372 11.2947 15.8111 14.8244L19.7957 18.809C20.0681 19.0815 20.0681 19.5232 19.7957 19.7957C19.5232 20.0681 19.0815 20.0681 18.809 19.7957L14.8244 15.8111C11.2947 18.8372 5.97381 18.6791 2.63135 15.3366C-0.877117 11.8282 -0.877117 6.13982 2.63135 2.63135Z" fill="#9DB7CB"/>
</svg>
